<mxfile host="app.diagrams.net" modified="2020-10-30T14:50:38.998Z" agent="5.0 (Macintosh)" etag="HrGVsDg9Ie6xuwCW-hl-" version="13.8.7" type="github">
  <diagram id="yMsGH9oKc4bSpKUsbiqI" name="Page-1">
    <mxGraphModel dx="946" dy="548" grid="1" gridSize="10" guides="1" tooltips="1" connect="1" arrows="1" fold="1" page="1" pageScale="1" pageWidth="850" pageHeight="1100" math="0" shadow="0">
      <root>
        <mxCell id="0" />
        <mxCell id="1" parent="0" />
        <mxCell id="GPn2xuiqEUJnzuvJpPec-1" value="Image and Metadata Fetching (EC2)" style="outlineConnect=0;dashed=0;verticalLabelPosition=bottom;verticalAlign=top;align=center;html=1;shape=mxgraph.aws3.ec2;fillColor=#F58534;gradientColor=none;" parent="1" vertex="1">
          <mxGeometry x="130" y="160" width="76.5" height="93" as="geometry" />
        </mxCell>
        <mxCell id="GPn2xuiqEUJnzuvJpPec-2" value="Metadata Databse (HBase)" style="outlineConnect=0;dashed=0;verticalLabelPosition=bottom;verticalAlign=top;align=center;html=1;shape=mxgraph.aws3.dynamo_db;fillColor=#2E73B8;gradientColor=none;" parent="1" vertex="1">
          <mxGeometry x="310" y="160" width="72" height="81" as="geometry" />
        </mxCell>
        <mxCell id="GPn2xuiqEUJnzuvJpPec-3" value="Image storage (S3)" style="outlineConnect=0;dashed=0;verticalLabelPosition=bottom;verticalAlign=top;align=center;html=1;shape=mxgraph.aws3.s3;fillColor=#E05243;gradientColor=none;" parent="1" vertex="1">
          <mxGeometry x="305.5" y="30" width="76.5" height="93" as="geometry" />
        </mxCell>
        <mxCell id="GPn2xuiqEUJnzuvJpPec-4" value="Image Id Queue (SQS)" style="outlineConnect=0;dashed=0;verticalLabelPosition=bottom;verticalAlign=top;align=center;html=1;shape=mxgraph.aws3.sqs;fillColor=#D9A741;gradientColor=none;" parent="1" vertex="1">
          <mxGeometry x="310" y="280" width="76.5" height="93" as="geometry" />
        </mxCell>
        <mxCell id="GPn2xuiqEUJnzuvJpPec-6" value="car speed database (Redshift)" style="outlineConnect=0;dashed=0;verticalLabelPosition=bottom;verticalAlign=top;align=center;html=1;shape=mxgraph.aws3.redshift;fillColor=#2E73B8;gradientColor=none;" parent="1" vertex="1">
          <mxGeometry x="510" y="130" width="67.5" height="75" as="geometry" />
        </mxCell>
        <mxCell id="GPn2xuiqEUJnzuvJpPec-7" value="Web Server" style="outlineConnect=0;dashed=0;verticalLabelPosition=bottom;verticalAlign=top;align=center;html=1;shape=mxgraph.aws3.ec2;fillColor=#F58534;gradientColor=none;" parent="1" vertex="1">
          <mxGeometry x="660" y="123" width="76.5" height="93" as="geometry" />
        </mxCell>
        <mxCell id="GPn2xuiqEUJnzuvJpPec-9" value="" style="endArrow=classic;html=1;entryX=0;entryY=0.5;entryDx=0;entryDy=0;entryPerimeter=0;" parent="1" target="GPn2xuiqEUJnzuvJpPec-2" edge="1">
          <mxGeometry width="50" height="50" relative="1" as="geometry">
            <mxPoint x="210" y="201" as="sourcePoint" />
            <mxPoint x="290" y="201" as="targetPoint" />
          </mxGeometry>
        </mxCell>
        <mxCell id="GPn2xuiqEUJnzuvJpPec-10" value="" style="endArrow=classic;html=1;" parent="1" edge="1">
          <mxGeometry width="50" height="50" relative="1" as="geometry">
            <mxPoint x="210" y="200" as="sourcePoint" />
            <mxPoint x="290" y="70" as="targetPoint" />
          </mxGeometry>
        </mxCell>
        <mxCell id="GPn2xuiqEUJnzuvJpPec-11" value="" style="endArrow=classic;html=1;entryX=0;entryY=0.5;entryDx=0;entryDy=0;entryPerimeter=0;" parent="1" target="GPn2xuiqEUJnzuvJpPec-4" edge="1">
          <mxGeometry width="50" height="50" relative="1" as="geometry">
            <mxPoint x="207" y="200" as="sourcePoint" />
            <mxPoint x="290" y="320" as="targetPoint" />
          </mxGeometry>
        </mxCell>
        <mxCell id="GPn2xuiqEUJnzuvJpPec-12" value="" style="endArrow=classic;html=1;" parent="1" edge="1">
          <mxGeometry width="50" height="50" relative="1" as="geometry">
            <mxPoint x="386.5" y="330" as="sourcePoint" />
            <mxPoint x="508.5" y="327.2715654952077" as="targetPoint" />
          </mxGeometry>
        </mxCell>
        <mxCell id="GPn2xuiqEUJnzuvJpPec-13" value="" style="endArrow=classic;html=1;exitX=1;exitY=0.53;exitDx=0;exitDy=0;exitPerimeter=0;entryX=0;entryY=0.5;entryDx=0;entryDy=0;entryPerimeter=0;" parent="1" source="GPn2xuiqEUJnzuvJpPec-6" target="GPn2xuiqEUJnzuvJpPec-7" edge="1">
          <mxGeometry width="50" height="50" relative="1" as="geometry">
            <mxPoint x="590" y="190" as="sourcePoint" />
            <mxPoint x="640" y="140" as="targetPoint" />
          </mxGeometry>
        </mxCell>
        <mxCell id="GPn2xuiqEUJnzuvJpPec-15" value="" style="endArrow=classic;html=1;exitX=0.5;exitY=0;exitDx=0;exitDy=0;exitPerimeter=0;entryX=0.5;entryY=1;entryDx=0;entryDy=0;entryPerimeter=0;" parent="1" target="GPn2xuiqEUJnzuvJpPec-6" edge="1">
          <mxGeometry width="50" height="50" relative="1" as="geometry">
            <mxPoint x="543" y="290.5" as="sourcePoint" />
            <mxPoint x="543" y="220" as="targetPoint" />
          </mxGeometry>
        </mxCell>
        <mxCell id="GPn2xuiqEUJnzuvJpPec-16" value="" style="endArrow=classic;html=1;exitX=1;exitY=0.5;exitDx=0;exitDy=0;exitPerimeter=0;entryX=0.065;entryY=0.257;entryDx=0;entryDy=0;entryPerimeter=0;" parent="1" source="GPn2xuiqEUJnzuvJpPec-2" edge="1">
          <mxGeometry width="50" height="50" relative="1" as="geometry">
            <mxPoint x="380" y="230" as="sourcePoint" />
            <mxPoint x="512.9849999999999" y="309.004" as="targetPoint" />
          </mxGeometry>
        </mxCell>
        <mxCell id="GPn2xuiqEUJnzuvJpPec-17" value="" style="endArrow=classic;html=1;entryX=0.326;entryY=0.049;entryDx=0;entryDy=0;entryPerimeter=0;exitX=1;exitY=0.5;exitDx=0;exitDy=0;exitPerimeter=0;" parent="1" source="GPn2xuiqEUJnzuvJpPec-3" edge="1">
          <mxGeometry width="50" height="50" relative="1" as="geometry">
            <mxPoint x="382" y="126.5" as="sourcePoint" />
            <mxPoint x="530.9939999999999" y="294.028" as="targetPoint" />
          </mxGeometry>
        </mxCell>
        <mxCell id="4dlaEM_nEZ32SE6irR_r-2" value="Image Processing - Plate Number (ECS)" style="outlineConnect=0;dashed=0;verticalLabelPosition=bottom;verticalAlign=top;align=center;html=1;shape=mxgraph.aws3.ecs;fillColor=#F58534;gradientColor=none;" vertex="1" parent="1">
          <mxGeometry x="510" y="293" width="72" height="67.5" as="geometry" />
        </mxCell>
      </root>
    </mxGraphModel>
  </diagram>
</mxfile>
